<?xml version="1.0" encoding="UTF-8" standalone="no"?>
<svg
   xmlns:dc="http://purl.org/dc/elements/1.1/"
   xmlns:cc="http://creativecommons.org/ns#"
   xmlns:rdf="http://www.w3.org/1999/02/22-rdf-syntax-ns#"
   xmlns:svg="http://www.w3.org/2000/svg"
   xmlns="http://www.w3.org/2000/svg"
   xmlns:sodipodi="http://sodipodi.sourceforge.net/DTD/sodipodi-0.dtd"
   xmlns:inkscape="http://www.inkscape.org/namespaces/inkscape"
   sodipodi:docname="logo-submariner-blue.svg"
   inkscape:version="1.0 (4035a4fb49, 2020-05-01)"
   id="svg2082"
   version="1.1"
   viewBox="0 0 198 49"
   height="49mm"
   width="198mm">
  <defs
     id="defs2076" />
  <sodipodi:namedview
     inkscape:window-maximized="0"
     inkscape:window-y="27"
     inkscape:window-x="50"
     inkscape:window-height="1016"
     inkscape:window-width="1530"
     showgrid="false"
     inkscape:document-rotation="0"
     inkscape:current-layer="layer1"
     inkscape:document-units="mm"
     inkscape:cy="560"
     inkscape:cx="400"
     inkscape:zoom="0.35"
     inkscape:pageshadow="2"
     inkscape:pageopacity="0.0"
     borderopacity="1.0"
     bordercolor="#666666"
     pagecolor="#ffffff"
     id="base" />
  <metadata
     id="metadata2079">
    <rdf:RDF>
      <cc:Work
         rdf:about="">
        <dc:format>image/svg+xml</dc:format>
        <dc:type
           rdf:resource="http://purl.org/dc/dcmitype/StillImage" />
        <dc:title></dc:title>
      </cc:Work>
    </rdf:RDF>
  </metadata>
  <g
     id="layer1"
     inkscape:groupmode="layer"
     inkscape:label="Layer 1">
    <g
       style="opacity:0.617308"
       transform="matrix(0.86022871,0,0,0.86022871,-736.21418,-224.45378)"
       id="g1116">
      <g
         id="g3503"
         transform="matrix(1.146568,0,0,1.146568,4.496801,93.929211)"
         style="fill:#167ad0;fill-opacity:1;stroke-width:0.872168;stroke-miterlimit:4;stroke-dasharray:none">
        <path
           class="cls-1"
           d="m 871.88015,163.2465 h 6.44899 c 3.06176,0 5.12634,1.48463 5.12634,4.361 a 4.3819233,4.3819233 0 0 1 -3.15464,4.24547 4.6471253,4.6471253 0 0 1 1.09006,1.48463 c 0.6498,1.32227 1.09044,2.78348 2.45914,2.78348 a 1.8042212,1.8042212 0 0 0 0.62603,-0.11591 l -0.30131,2.76045 a 7.5911741,7.5911741 0 0 1 -1.55448,0.2088 c -1.85578,0 -2.9228,-0.71928 -4.01287,-3.20146 -0.46404,-1.11309 -1.11346,-3.06214 -1.97169,-3.06214 h -0.88166 v 6.19373 h -3.87391 z m 3.87392,2.8069 v 3.85052 h 1.39175 c 1.11346,0 2.41271,-0.34775 2.41271,-2.01777 0,-1.36871 -0.88165,-1.83274 -1.94869,-1.83274 z"
           id="path2396"
           style="fill:#167ad0;fill-opacity:1;stroke-width:0.872168;stroke-miterlimit:4;stroke-dasharray:none" />
        <path
           class="cls-1"
           d="m 885.40453,163.2465 h 8.07256 v 2.73742 h -2.11104 v 10.18359 h 2.11104 v 2.73704 h -8.07256 v -2.73704 h 2.0876 v -10.18359 h -2.0876 z"
           id="path2398"
           style="fill:#167ad0;fill-opacity:1;stroke-width:0.872168;stroke-miterlimit:4;stroke-dasharray:none" />
        <path
           class="cls-1"
           d="m 895.58849,163.2465 h 4.15218 l 4.10615,7.77126 c 0.34774,0.67284 0.81177,1.8554 1.18293,2.78349 h 0.0929 c -0.0465,-0.88127 -0.16236,-2.13407 -0.16236,-3.03874 v -7.51601 h 3.17805 v 15.65805 h -4.05969 l -4.26811,-7.74784 a 21.565286,21.565286 0 0 1 -1.13688,-2.55165 h -0.0929 c 0.0699,0.88166 0.18577,1.92564 0.18577,2.78349 v 7.516 h -3.17805 z"
           id="path2400"
           style="fill:#167ad0;fill-opacity:1;stroke-width:0.872168;stroke-miterlimit:4;stroke-dasharray:none" />
        <path
           class="cls-1"
           d="m 910.96863,163.2465 h 10.36935 v 2.87636 h -6.49542 v 3.36382 h 5.45143 v 2.87638 h -5.45143 v 3.66513 h 6.72726 v 2.87636 h -10.60119 z"
           id="path2402"
           style="fill:#167ad0;fill-opacity:1;stroke-width:0.872168;stroke-miterlimit:4;stroke-dasharray:none" />
        <path
           class="cls-1"
           d="m 923.58834,163.2465 h 6.44898 c 3.06213,0 5.12672,1.48463 5.12672,4.361 a 4.3822116,4.3822116 0 0 1 -3.15502,4.24547 4.6481948,4.6481948 0 0 1 1.09043,1.48463 c 0.64943,1.32227 1.09007,2.78348 2.45878,2.78348 a 1.805018,1.805018 0 0 0 0.6264,-0.11592 l -0.30168,2.76046 a 7.5902969,7.5902969 0 0 1 -1.5541,0.20879 c -1.85578,0 -2.92281,-0.71928 -4.01324,-3.20146 -0.46404,-1.11308 -1.11347,-3.06214 -1.9717,-3.06214 h -0.88166 v 6.19374 h -3.87391 z m 3.87391,2.8069 v 3.85052 h 1.39175 c 1.11384,0 2.41271,-0.34775 2.41271,-2.01777 0,-1.36871 -0.88165,-1.83274 -1.94867,-1.83274 z"
           id="path2404"
           style="fill:#167ad0;fill-opacity:1;stroke-width:0.872168;stroke-miterlimit:4;stroke-dasharray:none" />
      </g>
      <g
         id="g3231"
         style="fill:#167ad0;fill-opacity:1;stroke-width:0.872168"
         transform="matrix(1.1395405,0,0,1.1395405,11.043852,95.135797)">
        <path
           class="cls-1"
           d="m 798.5975,173.75518 c -0.27827,1.25242 0.20881,2.6906 2.66777,2.6906 1.62375,0 2.18049,-0.64943 2.18049,-1.50804 0,-1.29885 -1.29905,-1.62356 -2.83011,-2.18012 -2.29642,-0.78912 -5.12654,-1.90222 -5.12654,-5.17315 0,-2.92282 2.25016,-4.70913 6.07764,-4.61624 4.6859,0.0925 6.00817,2.85334 5.49787,5.24263 l -3.5492,0.32472 c 0.23202,-1.80934 -0.4176,-2.8303 -2.25016,-2.8303 -1.22938,0 -1.92543,0.46441 -1.92543,1.43856 0,1.29886 1.25279,1.69304 2.78367,2.22693 2.36626,0.78838 5.17297,1.73987 5.17297,4.98703 0,2.8069 -2.08761,4.82542 -6.17033,4.82542 -3.82767,0 -6.44899,-1.76329 -5.91529,-5.10332 z"
           id="path2386"
           style="fill:#167ad0;fill-opacity:1;stroke-width:0.230761" />
        <path
           class="cls-1"
           d="m 809.29195,163.2465 h 3.87394 v 10.04427 c 0,1.99511 0.83519,2.8303 2.43574,2.8303 1.57751,0 2.52862,-0.81178 2.52862,-2.89977 v -9.9748 h 3.75782 v 9.90532 c 0,3.59564 -2.34286,6.03138 -6.40236,6.03138 -3.80445,0 -6.19374,-2.22694 -6.19374,-5.68326 z"
           id="path2388"
           style="fill:#167ad0;fill-opacity:1;stroke-width:0.230761" />
        <path
           class="cls-1"
           d="m 824.5796,163.2465 h 6.70404 c 2.76046,0 4.84807,0.92808 4.84807,3.78105 0,2.15746 -1.18295,2.99265 -3.2011,3.43366 v 0.0925 c 2.29641,0.27827 3.68815,1.48463 3.68815,3.82748 0,3.06214 -2.20352,4.52335 -5.14975,4.52335 h -6.88941 z m 5.56716,6.00799 c 1.02096,0 2.04155,-0.2779 2.04155,-1.62358 0,-1.36872 -0.90467,-1.57751 -1.80934,-1.57751 h -1.94866 v 3.20109 z m 0.37115,6.84316 c 1.18333,0 2.20392,-0.57995 2.20392,-2.13405 0,-1.34531 -1.02059,-1.90223 -2.20392,-1.90223 h -2.0876 v 4.03628 z"
           id="path2390"
           style="fill:#167ad0;fill-opacity:1;stroke-width:0.230761" />
        <path
           class="cls-1"
           d="m 838.68373,163.2465 h 4.80162 l 2.55204,6.98251 c 0.39418,1.11347 0.67246,2.24997 0.67246,2.24997 h 0.0929 a 22.097631,22.097631 0 0 1 0.67284,-2.24997 l 2.48217,-6.98251 h 4.5698 v 15.65805 h -3.61906 v -7.9102 c 0,-0.9277 0.25525,-3.1082 0.25525,-3.1082 h -0.0925 c 0,0 -0.46405,2.20353 -0.76571,2.99229 l -3.0157,8.02611 h -1.73987 l -3.03872,-8.02611 a 24.708944,24.708944 0 0 1 -0.7189,-2.85334 h -0.0929 c 0,0 0.16235,2.04155 0.16235,2.96925 v 7.9102 h -3.17807 z"
           id="path2392"
           style="fill:#167ad0;fill-opacity:1;stroke-width:0.230761" />
        <path
           class="cls-1"
           d="m 861.23215,163.2465 h 3.92037 l 5.28907,15.65805 h -3.92036 l -0.97452,-2.96925 h -5.24264 l -0.95074,2.96925 h -3.38684 z m 0,9.81243 h 3.36344 l -1.06703,-3.29396 a 15.314162,15.314162 0 0 1 -0.53352,-2.6906 h -0.0929 a 19.890867,19.890867 0 0 1 -0.57957,2.66719 z"
           id="path2394"
           style="fill:#167ad0;fill-opacity:1;stroke-width:0.230761" />
      </g>
      <g
         id="g3081"
         style="fill:#167ad0;fill-opacity:1;stroke-width:0.928798"
         transform="matrix(1.076657,0,0,1.076657,73.758509,97.868994)">
        <path
           sodipodi:nodetypes="ccccccccccccc"
           class="cls-2"
           d="m 745.87753,172.63696 v 4.85137 h 22.98034 c 2.2593,0.003 4.09018,1.83346 4.09267,4.09276 v 5.9097 c -0.003,2.25927 -1.8334,4.09013 -4.09267,4.09266 h -18.91705 c -3.53336,0.32052 -7.95149,-0.0586 -15.19395,0.2406 0,0 0.22261,6.30465 4.662,6.35743 h 35.38841 c 2.62096,-0.008 4.74377,-2.13047 4.75145,-4.75143 v -20.79309 z"
           id="path2406"
           style="fill:#167ad0;fill-opacity:1;stroke-width:0.245745" />
        <path
           class="cls-2"
           d="m 768.32867,186.96157 v -4.85138 h -22.98035 a 4.097363,4.097363 0 0 1 -4.09267,-4.09276 v -5.90967 a 4.0973399,4.0973399 0 0 1 4.09267,-4.09267 h 34.20038 v -1.8466 a 4.7654107,4.7654107 0 0 0 -4.75145,-4.75144 h -35.38841 a 4.7654074,4.7654074 0 0 0 -4.75145,4.75143 v 20.79309 z"
           id="path2408"
           style="fill:#167ad0;fill-opacity:1;stroke-width:0.245745" />
      </g>
    </g>
  </g>
</svg>
